<svg width="357" height="180" viewBox="0 0 357 180" fill="none" xmlns="http://www.w3.org/2000/svg">
<path d="M70.4904 166.329H93.2293L156.898 103.671L218.293 166.329H238.758L167.131 91.1392L238.758 15.9494H218.293L89.8185 150.38L115.968 91.1392L140.981 29.6203V80.8861L153.487 68.3544V15.9494H130.748L70.4904 166.329Z" fill="#aaf0d1"/>
<path d="M13.6433 91.1392L68.2166 166.329H54.5732L0 91.1392L54.5732 15.9494H68.2166L13.6433 91.1392Z" fill="#aaf0d1"/>
<path d="M343.357 91.1392L288.783 166.329H302.427L357 91.1392L302.427 15.9494H288.783L343.357 91.1392Z" fill="#aaf0d1"/>
<path d="M275.14 0H286.51L252.401 180H241.032L275.14 0Z" fill="#aaf0d1"/>
</svg>
