<svg width="431" height="375" viewBox="0 0 431 375" fill="none" xmlns="http://www.w3.org/2000/svg">
<path d="M19.5936 330.009C29.6416 317.486 2.512 348.098 43.2064 293.83C83.9009 239.563 49.2352 375 49.2352 375H0C0 375 9.54561 342.532 19.5936 330.009Z" fill="#D9D9D9"/>
<path d="M411.406 336.231C401.358 325.44 428.488 351.819 387.794 305.056C347.099 258.293 381.765 375 381.765 375H431C431 375 421.454 347.022 411.406 336.231Z" fill="#D9D9D9"/>
<path d="M60.515 277.98C72.945 271.765 102.605 257.305 132.835 245.775L268.37 237.902C268.823 238.161 282.431 246.413 289.275 248.072C296.12 249.73 298.945 248.035 306.29 249.73C313.635 251.425 313.635 255.38 313.635 255.38C313.635 255.38 339.06 265.55 345.84 268.94C352.62 272.33 356.01 275.72 362.79 280.24C369.57 284.76 382 298.885 382 298.885V375.16H43V294.365C49.113 288.949 48.085 284.195 60.515 277.98Z" fill="#D9D9D9"/>
<path d="M154.87 291.54C153.175 287.585 150.78 279.069 149.22 270.07L168.43 273.46L209.11 276.285L245.835 260.465L265.045 245.21C265.045 245.21 267.305 245.21 268.435 248.6C269.565 251.99 268.435 256.51 268.435 260.465C268.435 264.42 265.045 275.155 263.915 278.545C262.785 281.935 256.005 298.885 255.44 300.58C254.875 302.275 246.965 317.53 245.835 319.79C244.705 322.05 239.055 328.83 236.795 331.09C234.535 333.35 229.45 335.045 225.495 336.175C221.54 337.305 215.325 337.87 215.325 337.87C215.325 337.87 198.375 341.26 187.075 335.61C175.775 329.96 176.34 331.09 170.69 323.745C165.04 316.4 165.605 315.835 162.215 308.49C158.825 301.145 156.565 295.495 154.87 291.54Z" fill="#E3C5AB"/>
<path d="M280.865 202.27C279.17 201.705 280.3 202.835 278.04 202.27C276.826 201.967 276.427 201.989 276.318 202.075L276.345 202.27C276.345 202.27 276.224 202.149 276.318 202.075L274.085 185.885L277.475 144.075L293.86 143.51C293.86 143.51 297.25 143.51 298.945 145.77C300.64 148.03 301.205 148.03 302.335 154.81C303.465 161.59 302.335 175.715 301.77 181.365C301.205 187.015 300.64 194.36 299.51 196.62C298.38 198.88 294.99 202.27 294.99 202.27C294.99 202.27 288.775 202.835 287.08 202.835C285.385 202.835 282.56 202.835 280.865 202.27Z" fill="#252525"/>
<path d="M111.365 197.75C113.06 198.315 119.67 198.352 123.795 197.75L130.575 141.25C130.575 141.25 111.365 140.12 107.41 142.945C103.455 145.77 103.12 151.964 102.325 155.94C101.53 159.916 102.325 177.975 102.89 182.495C103.455 187.015 109.67 197.185 111.365 197.75Z" fill="#252525"/>
<path d="M134.53 103.96C138.736 96.5186 144.7 89.2701 148.655 86.4451C152.61 83.62 162.278 81.5516 171.255 82.4901H209.675C220.975 82.4901 236.795 83.0551 246.965 86.4451C257.135 89.835 254.875 88.1401 261.655 94.3551C268.435 100.57 271.26 108.48 273.52 115.825C275.78 123.17 278.395 129.865 278.04 140.12C276.925 157.136 278.605 179.105 278.04 184.19C277.475 189.275 276.91 204.53 276.345 210.18C275.78 215.83 271.825 227.695 270.13 233.345C268.435 238.995 261.09 254.815 257.135 261.03C253.18 267.245 248.66 270.635 244.705 274.025C240.75 277.415 222.105 289.845 216.455 292.105C210.805 294.365 204.59 294.365 197.245 294.365C189.9 294.365 175.775 293.235 170.69 289.845C165.605 286.455 161.085 281.935 156 277.415C150.915 272.895 139.807 260.783 137.355 254.815C134.903 248.847 127.561 230.2 125.49 219.22C123.419 208.241 122.1 192.1 122.665 187.015C123.23 181.93 124.995 169.313 124.925 151.985C125.187 142.692 125.5 137.142 127.75 123.735L127.816 123.441C129.335 116.63 130.207 112.72 134.53 103.96Z" fill="#F3D1B5"/>
<path d="M141.875 232.215C140.18 228.26 122.665 195.49 122.665 195.49C122.969 203.77 123.781 210.6 124.925 218.09C127.122 231.193 128.53 235.936 131.14 242.95C136.863 255.512 140.686 261.053 148.09 269.505C148.09 269.505 164.475 286.455 167.3 289.28C170.125 292.105 179.215 294.534 185.38 294.93C185.38 294.93 209.675 296.625 214.195 294.93C218.715 293.235 228.885 287.02 228.885 287.02C228.885 287.02 241.315 277.98 245.27 274.025C249.225 270.07 256.005 262.725 258.265 259.335C260.525 255.945 266.175 245.21 266.175 245.21C266.175 245.21 271.825 228.825 272.955 226C274.085 223.175 275.78 216.96 276.345 213.005C276.91 209.05 276.91 201.705 276.91 201.705C276.91 201.705 254.31 246.905 251.485 249.73C248.66 252.555 244.14 256.51 241.88 255.945C239.62 255.38 230.58 236.735 228.885 234.475C227.19 232.215 222.105 231.65 219.845 231.65H201.765H175.775C172.385 231.65 166.17 232.78 163.91 234.475C161.65 236.17 154.305 248.6 152.045 248.6C149.785 248.6 148.655 248.035 146.96 244.645C145.265 241.255 143.57 236.17 141.875 232.215Z" fill="#8A7064"/>
<path d="M165.605 261.595C164.475 258.77 166.17 251.425 166.735 249.165C167.3 246.905 167.865 245.21 170.69 244.645C173.515 244.08 185.38 243.515 188.205 244.645C191.03 245.775 193.29 245.775 196.115 245.775C198.94 245.775 197.245 245.775 203.46 244.645C209.675 243.515 215.325 242.95 219.845 244.645C224.365 246.34 227.19 248.035 227.19 249.73C227.19 251.425 228.32 259.9 227.19 261.595C226.06 263.29 223.8 264.985 222.105 265.55C220.41 266.115 210.24 270.635 207.98 269.505C205.72 268.375 204.59 261.03 202.895 259.9C201.2 258.77 193.855 258.77 192.16 259.335C190.465 259.9 188.205 267.245 187.075 268.375C185.945 269.505 180.86 272.895 178.6 272.895C176.34 272.895 166.735 264.42 165.605 261.595Z" fill="#F3D1B5"/>
<path d="M133.965 157.635C126.615 158.938 122.605 159.705 117.015 161.59L114.755 168.37L119.84 170.065L121.535 181.365C123.392 187.694 125.169 190.007 128.88 193.23C131.961 195.209 136.346 197.059 145.265 198.315C162.715 199.54 165.232 198.001 171.255 197.75C176.884 196.834 179.422 195.621 182.555 193.23C186.188 189.483 186.923 187.214 188.77 183.06C190.359 178.138 191.595 173.455 193.29 172.325C194.985 171.195 201.765 171.76 202.895 172.325C204.025 172.89 205.72 175.715 206.285 176.845C206.85 177.975 208.937 183.555 210.805 187.58C213.17 192.488 216.455 194.925 218.715 196.055C220.975 197.185 233.003 198.903 242.445 198.88C250.426 199.078 254.577 198.609 261.655 197.185C264.861 196.078 266.432 195.163 269 193.23C271.349 190.257 272.282 188.368 273.52 184.755L276.345 172.325C277.42 171.031 278.046 170.647 279.17 170.065L280.3 162.72C278.968 162.686 278.04 162.155 275.78 161.59L262.785 159.895C253.697 158.708 248.629 157.944 239.62 158.2C232.094 158.518 228.224 158.39 221.54 159.33C215.212 160.421 211.736 161.357 205.72 163.85C200.142 164.847 197.017 165.356 191.595 163.85C186.946 162.125 184.753 161.762 184.25 161.59C175.288 158.493 164.63 157.89 160.52 157.635C150.027 156.905 144.225 156.974 133.965 157.635Z" fill="black"/>
<path d="M207.98 168.935C207.98 167.24 209.11 166.11 210.24 165.545C211.37 164.98 213.63 164.415 213.63 164.415C219.323 162.902 223.705 161.937 226.625 161.59C232.489 160.802 237.925 160.46 242.445 160.46C246.965 160.46 252.615 161.025 252.615 161.025C252.615 161.025 262.22 161.59 265.045 162.155C267.87 162.72 270.614 164.146 271.825 165.545C273.396 167.007 273.667 168.324 273.52 171.195C273.52 171.195 272.955 176.845 272.39 179.105C271.825 181.365 271.26 184.755 270.13 187.015C269 189.275 268.246 191.404 266.175 193.23C263.915 194.92 262.22 196.055 258.83 196.62C255.44 197.185 252.819 197.688 248.095 197.75H241.315C236.795 197.75 228.32 197.185 223.8 196.055C219.28 194.925 218.15 194.36 216.455 192.665C214.76 190.97 213.63 189.84 212.5 187.58C211.37 185.32 209.999 181.251 209.11 176.28C209.11 176.28 207.98 170.63 207.98 168.935Z" fill="#DCFFFD"/>
<path d="M130.01 161.59C127.75 162.155 126.055 162.155 123.795 164.415C121.535 166.675 123.23 171.195 123.23 172.89C123.38 174.98 123.514 176.078 123.795 177.975C124.328 180.758 124.712 182.085 125.49 184.19C127.584 189.407 128.305 190.773 129.445 191.535C132.303 193.802 134.121 193.834 137.355 194.925C142.352 196.174 145.212 196.432 150.35 196.62C155.761 196.934 158.719 196.902 163.91 196.62C168.298 196.381 172.924 195.357 175.775 194.36C179.682 193.029 180.802 191.913 182.555 189.84C184.415 186.642 185.223 184.704 185.945 180.8C186.712 177.224 187.141 175.443 187.64 172.325C187.953 170.308 187.889 168.725 187.075 167.24C186.031 165.369 184.957 165.276 183.12 164.415C178.145 162.665 177.551 162.098 172.385 161.59C166.852 160.885 165.75 160.666 161.085 160.46C156.77 160.102 149.934 160.118 144.135 160.46C144.135 160.46 132.27 161.025 130.01 161.59Z" fill="#DCFFFD"/>
<path d="M276.345 123.17C274.008 111.516 270.679 105.481 261.655 95.485C257.351 92.1002 255.116 90.9918 251.485 90.4C247.883 90.1161 245.849 90.0316 241.315 94.355C238.638 96.4868 235.129 95.4299 226.06 90.4C220.981 86.07 216.702 84.8582 207.98 83.62C194.015 85.2741 187.487 85.2616 178.035 83.62C168.364 81.9316 163.034 81.8236 153.74 83.62C145.743 87.7921 142.896 90.436 139.615 95.485C134.155 102.413 132.455 105.876 130.01 111.87C126.708 125.687 126.385 129.068 126.62 132.775C127.048 152.592 125.956 154.357 123.332 158.6L123.23 158.765C119.344 164.475 123.611 169.544 118.71 170.63C116.613 171.283 112.705 162.114 111.365 158.765C107.062 144.67 104.019 142.194 106.845 127.69C109.161 117.694 109.088 110.845 115.32 102.83C120.385 95.8708 123.035 94.9613 127.75 90.4C124.745 86.538 124.874 83.3389 127.75 77.97C136.736 65.6219 141.875 58.195 148.09 51.415C154.305 44.635 162.779 36.7266 174.08 28.815L202.895 9.04C211.608 4.27768 217.641 3.68535 229.45 4.52C222.533 8.2922 220.132 10.7552 218.715 15.82C232.796 14.1454 237.429 8.01303 247.53 0C240.801 9.42919 238.35 14.257 239.62 20.905C250.017 16.2949 255.989 16.6152 266.74 19.21C258.348 22.9161 254.48 25.4644 251.485 32.205C262.1 32.8107 266.498 34.864 272.39 40.68C280.088 43.7641 282.034 45.9334 285.95 49.72C296.05 56.8322 297.999 60.7734 301.205 67.8C292.952 65.6634 289.057 65.357 285.95 69.495C289.176 75.2081 293.369 77.4984 302.9 80.795H289.905C293.49 82.2782 294.711 82.7899 296.685 83.62C304.493 92.8622 305.276 98.0639 305.16 107.35C302.333 102.665 300.671 100.22 296.685 98.31C298.285 101.4 298.659 103.453 298.945 107.35C296.602 103.891 295.075 102.138 289.905 101.135C291.665 102.929 292.714 103.752 293.86 107.35L296.685 116.39C301.144 123.29 302.612 126.904 302.9 132.775C303.466 139.884 302.607 142.745 298.945 145.77C298.756 142.291 298.333 140.316 296.685 136.73C296.161 140.485 296.206 142.206 293.86 148.03C294.088 155.366 292.615 158.633 289.905 164.415C287.414 169.246 286.014 171.935 283.125 174.02C280.917 175.895 279.622 176.875 276.345 177.41C279.628 170.977 277.258 167.475 277.475 159.33C276.658 154.972 279.304 153.144 276.345 149.16C278.557 140.643 277.865 133.698 276.345 123.17Z" fill="#533F36"/>
<path d="M211.37 148.595C209.675 149.725 209.11 156.505 210.24 157.635C211.37 158.765 215.325 158.765 216.455 158.765C217.585 158.765 221.54 157.635 224.365 157.635C227.19 157.635 232.84 157.07 234.535 157.07C236.23 157.07 243.01 155.94 245.27 155.94C247.53 155.94 253.18 156.505 255.44 157.07C257.7 157.635 263.915 158.765 265.61 158.765C267.305 158.765 271.26 159.33 270.695 158.2C270.13 157.07 269 155.94 266.74 153.68L266.74 153.68C264.48 151.42 262.785 150.29 259.396 148.031L259.395 148.03C256.005 145.77 245.835 145.205 244.14 144.64C242.445 144.075 233.405 141.815 229.45 142.38C225.495 142.945 222.105 143.51 219.845 144.64C217.585 145.77 213.065 147.465 211.37 148.595Z" fill="#533F36"/>
<path d="M182.555 142.38C184.25 143.51 187.64 156.505 185.38 157.07C183.12 157.635 178.035 158.2 175.775 157.07C173.515 155.94 166.735 155.94 164.475 154.81C162.215 153.68 155.435 151.985 152.61 151.42C149.785 150.855 148.655 151.985 145.83 152.55C143.005 153.115 137.92 154.81 136.225 154.81C134.53 154.81 130.575 152.55 130.575 151.42C130.575 150.29 131.14 147.465 132.835 146.335C134.53 145.205 145.265 140.685 148.655 140.685C152.045 140.685 156 142.38 157.695 142.38C159.39 142.38 164.475 140.685 167.3 140.685C170.125 140.685 180.86 141.25 182.555 142.38Z" fill="#533F36"/>
</svg>
